HIERARCHY
ROOT Hips
{
	OFFSET 0.000000 0.000000 0.000000 
	CHANNELS 6 Xposition Yposition Zposition Zrotation Yrotation Xrotation
	JOINT LeftUpLeg
	{
		OFFSET 1.363060 -1.794630 0.839290 
		CHANNELS 3 Zrotation Yrotation Xrotation
		JOINT LeftLeg
		{
			OFFSET 2.448110 -6.726130 0.000000 
			CHANNELS 3 Zrotation Yrotation Xrotation
			JOINT LeftFoot
			{
				OFFSET 2.562200 -7.039590 0.000000 
				CHANNELS 3 Zrotation Yrotation Xrotation
				JOINT LeftToeBase
				{
					OFFSET 0.157640 -0.433110 2.322550 
					CHANNELS 3 Zrotation Yrotation Xrotation
					End Site
					{
						OFFSET 0.000000 0.000000 0.000000 
					}
				}
			}
		}
	}
	JOINT RightUpLeg
	{
		OFFSET -1.305520 -1.794630 0.839290 
		CHANNELS 3 Zrotation Yrotation Xrotation
		JOINT RightLeg
		{
			OFFSET -2.542530 -6.985550 0.000000 
			CHANNELS 3 Zrotation Yrotation Xrotation
			JOINT RightFoot
			{
				OFFSET -2.568260 -7.056230 0.000000 
				CHANNELS 3 Zrotation Yrotation Xrotation
				JOINT RightToeBase
				{
					OFFSET -0.164730 -0.452590 2.363150 
					CHANNELS 3 Zrotation Yrotation Xrotation
					End Site
					{
						OFFSET 0.000000 0.000000 0.000000 
					}
				}
			}
		}
	}
	JOINT Spine
	{
		OFFSET 0.028270 2.035590 -0.193380 
		CHANNELS 3 Zrotation Yrotation Xrotation
		JOINT Spine1
		{
			OFFSET 0.056720 2.048850 -0.042750 
			CHANNELS 3 Zrotation Yrotation Xrotation
			JOINT Neck1
			{
				OFFSET -0.054170 1.746240 0.172020 
				CHANNELS 3 Zrotation Yrotation Xrotation
				JOINT Head
				{
					OFFSET 0.104070 1.761360 -0.123970 
					CHANNELS 3 Zrotation Yrotation Xrotation
					End Site
					{
						OFFSET 0.000000 0.000000 0.000000 
					}
				}
			}
			JOINT LeftArm
			{
				OFFSET 3.362410 1.200890 -0.311210 
				CHANNELS 3 Zrotation Yrotation Xrotation
				JOINT LeftForeArm
				{
					OFFSET 4.983000 -0.000000 -0.000000 
					CHANNELS 3 Zrotation Yrotation Xrotation
					JOINT LeftHand
					{
						OFFSET 3.483560 -0.000000 -0.000000 
						CHANNELS 3 Zrotation Yrotation Xrotation
						JOINT LeftHandIndex1
						{
							OFFSET 0.715260 -0.000000 -0.000000 
							CHANNELS 3 Zrotation Yrotation Xrotation
							End Site
							{
								OFFSET 0.000000 0.000000 0.000000 
							}
						}
					}
				}
			}
			JOINT RightArm
			{
				OFFSET -3.136600 1.374050 -0.404650 
				CHANNELS 3 Zrotation Yrotation Xrotation
				JOINT RightForeArm
				{
					OFFSET -5.241900 -0.000000 -0.000000 
					CHANNELS 3 Zrotation Yrotation Xrotation
					JOINT RightHand
					{
						OFFSET -3.444170 -0.000000 -0.000000 
						CHANNELS 3 Zrotation Yrotation Xrotation
						JOINT RightHandIndex1
						{
							OFFSET -0.622530 -0.000000 -0.000000 
							CHANNELS 3 Zrotation Yrotation Xrotation
							End Site
							{
								OFFSET 0.000000 0.000000 0.000000 
							}
						}
					}
				}
			}
		}
	}
}
MOTION
Frames: 9
Frame Time: 0.041667
13.264989 18.154871 0.092378 5.789859 -41.982318 -5.977762 -14.003068 -17.495545 -86.789315 30.176701 19.759628 120.206556 0.655224 -6.723284 -6.526538 8.979700 -16.794600 -56.019900 13.186576 5.777991 -83.201518 -28.652118 -22.097408 116.604485 -0.973175 7.846204 -4.797708 -1.161300 6.841500 -19.246500 3.652996 10.784361 -0.397927 8.810101 2.301217 0.613240 -0.070007 1.573964 2.291091 -3.559500 0.338600 2.603400 -93.789972 -40.563877 64.610963 58.518780 -51.756108 -32.723094 1.683460 1.719525 17.613113 -7.125000 0.000000 0.000000 121.277953 50.205809 90.309588 -146.625470 35.048484 -108.348988 -7.177443 -5.216544 -52.806607 7.125000 0.000000 0.000000 
13.277612 18.146829 0.099974 5.813803 -41.884662 -5.978045 -14.102975 -17.737476 -86.865724 30.164307 19.759103 120.173378 0.624507 -6.448584 -6.356006 8.907300 -16.747700 -55.769000 13.144919 5.447309 -83.323577 -28.676887 -22.086877 116.672265 -0.935459 7.682931 -4.547499 -1.071600 6.580400 -18.478200 3.695440 10.865864 -0.334317 8.870122 2.313367 0.698568 -0.057306 1.523725 2.010354 -3.567000 0.307800 2.333200 -94.508891 -41.021128 64.711985 58.473588 -51.749630 -32.698187 1.711420 1.700297 17.167373 -7.125000 0.000000 0.000000 121.826270 49.818013 90.752651 -146.909205 34.735565 -108.606634 -7.260811 -5.418001 -52.801477 7.125000 0.000000 0.000000 
13.289117 18.150850 0.108240 5.891524 -41.855162 -5.941931 -14.228843 -17.836162 -86.939999 30.143479 19.771034 120.104761 0.598610 -6.184480 -6.243166 8.950000 -16.775500 -55.917100 13.082005 5.246916 -83.434884 -28.679951 -22.089865 116.667057 -0.907994 7.465873 -4.477858 -1.157700 6.831100 -19.215900 3.746515 10.952668 -0.283338 9.001938 2.328382 0.698283 -0.069728 1.497274 1.717981 -3.609200 0.286900 2.062100 -95.220451 -41.257796 64.617306 58.373705 -51.729330 -32.618237 1.714228 1.692779 16.634477 -7.125000 0.000000 0.000000 122.300017 49.310545 91.232612 -147.236415 34.377299 -108.863493 -7.359327 -5.578163 -52.694760 7.125000 0.000000 0.000000 
13.298277 18.155207 0.122873 5.819757 -41.896560 -5.805008 -14.222430 -17.814416 -87.016695 30.144019 19.773342 120.104345 0.589881 -6.126680 -6.174575 8.972800 -16.790200 -55.996200 13.149133 5.200806 -83.449431 -28.664841 -22.100993 116.612384 -0.895331 7.231764 -4.612236 -1.321200 7.279700 -20.546800 3.815238 11.045938 -0.224367 9.175722 2.342885 0.698585 -0.080700 1.497388 1.433616 -3.638200 0.281500 1.776300 -96.025584 -41.414161 64.355083 58.217702 -51.696291 -32.502101 1.730337 1.666375 16.008197 -7.125000 0.000000 0.000000 122.694557 48.703454 91.695950 -147.524848 34.044807 -109.075945 -7.425524 -5.809387 -52.871386 7.125000 0.000000 0.000000 
13.303638 18.156324 0.138399 5.724033 -41.993754 -5.668773 -14.142585 -17.780294 -87.054081 30.155686 19.766486 120.144976 0.593233 -6.255386 -6.100249 8.744100 -16.640200 -55.200800 13.182128 5.328974 -83.458882 -28.659826 -22.111824 116.590867 -0.882374 7.008742 -4.736835 -1.328200 7.298300 -20.602100 3.853378 11.174307 -0.150103 9.281295 2.385018 0.775692 -0.014851 1.464845 1.160423 -3.604900 0.266600 1.481300 -96.947990 -41.613468 64.229776 58.011844 -51.656218 -32.343036 1.765737 1.612499 15.695993 -7.125000 0.000000 0.000000 124.296038 48.928220 92.682976 -146.918197 34.721639 -108.674346 -7.308115 -6.021579 -53.566011 7.125000 0.000000 0.000000 
13.310676 18.163026 0.151133 5.641260 -42.064352 -5.533973 -14.113823 -17.765583 -87.042330 30.155346 19.769651 120.138365 0.593455 -6.185828 -6.167698 8.741300 -16.638300 -55.191100 13.155941 5.438266 -83.498649 -28.662950 -22.118652 116.595859 -0.871930 6.896468 -4.754006 -1.023700 6.436400 -18.056000 3.854403 11.339155 -0.104972 9.045797 2.457302 0.876235 0.097889 1.306385 0.943317 -3.599000 0.187600 1.254700 -97.825514 -41.827836 64.352857 57.782928 -51.625609 -32.145091 1.816405 1.546417 15.977133 -7.125000 0.000000 0.000000 123.486445 47.883506 92.027420 -148.021340 33.459022 -109.509960 -7.546555 -6.230287 -53.552369 7.125000 0.000000 0.000000 
13.321846 18.180116 0.158394 5.515923 -42.031396 -5.418249 -14.126853 -17.839428 -86.914255 30.123466 19.789506 120.026495 0.588101 -5.981022 -6.289438 8.932700 -16.764200 -55.857200 13.285030 5.413443 -83.373860 -28.605862 -22.149059 116.413679 -0.845765 6.546065 -4.881470 -0.744800 5.512800 -15.377200 3.867513 11.544762 -0.065409 8.928669 2.555952 0.881861 0.156389 1.090787 0.784222 -3.646400 0.077400 1.107100 -98.634838 -42.098689 64.727612 57.492347 -51.582570 -31.891906 1.871293 1.484366 16.236578 -7.125000 0.000000 0.000000 125.022416 48.164319 92.753732 -147.609101 33.990835 -109.232643 -7.531429 -6.211258 -53.991325 7.125000 0.000000 0.000000 
13.334133 18.196425 0.162862 5.362027 -41.881054 -5.245931 -14.078206 -18.112592 -86.864132 30.080084 19.803566 119.892065 0.580296 -5.902257 -6.259646 8.794300 -16.673500 -55.375900 13.360467 5.253044 -83.282183 -28.555839 -22.171120 116.255471 -0.823611 6.348439 -4.861915 -0.565700 4.817400 -13.388400 3.913728 11.728560 -0.028663 9.008404 2.623128 0.860550 0.181859 0.986008 0.633069 -3.672200 0.021400 0.971800 -99.516424 -42.413496 65.189741 57.261981 -51.570208 -31.697986 1.923640 1.429307 16.425693 -7.125000 0.000000 0.000000 125.196374 48.134766 92.604420 -147.772180 33.837164 -109.390027 -7.552626 -6.299153 -54.542123 7.125000 0.000000 0.000000 
13.340724 18.196760 0.172357 5.195466 -41.755778 -5.024503 -13.959586 -18.363155 -87.015573 30.080689 19.792342 119.902744 0.569286 -5.825516 -6.177813 8.625700 -16.560700 -54.786300 13.341135 5.179994 -83.351373 -28.551786 -22.175950 116.238854 -0.816541 6.321302 -4.810036 -0.701900 5.355000 -14.923900 3.978827 11.821594 0.027411 9.215576 2.619638 0.965250 0.246886 0.990862 0.537356 -3.630100 0.024900 0.862800 -100.296322 -42.667387 65.417833 57.285369 -51.623252 -31.731741 1.976516 1.363205 17.036325 -7.125000 0.000000 0.000000 124.156677 47.608202 91.799760 -148.600030 32.879458 -110.016142 -7.694264 -6.422604 -54.998122 7.125000 0.000000 0.000000 
